<svg xmlns:xlink="http://www.w3.org/1999/xlink" xmlns="http://www.w3.org/2000/svg" viewBox="0 0 500 500" width="200"  height="200" >
  <path id="color_x5F_1_31_" d="M 289.053 197.378 C 264.695 207.39 247.514 231.21 247.514 258.941 C 247.514 295.673 277.65 325.557 314.692 325.557 C 351.733 325.557 381.87 295.673 381.87 258.941 C 381.87 244.044 376.912 230.273 368.547 219.165 C 377.974 204.236 385.063 187.856 389.404 170.775 C 354.399 170.983 319.519 180.295 289.053 197.378 Z M 314.692 311.484 C 285.474 311.484 261.706 287.913 261.706 258.941 C 261.706 229.97 285.475 206.398 314.692 206.398 C 343.907 206.398 367.677 229.969 367.677 258.941 C 367.677 287.914 343.908 311.484 314.692 311.484 Z M 332.403 251.67 C 332.403 265.662 320.966 277.003 306.856 277.003 C 292.748 277.003 281.309 265.662 281.309 251.67 C 281.309 237.678 292.747 226.337 306.856 226.337 C 320.966 226.336 332.403 237.678 332.403 251.67 Z M 231.865 258.941 C 231.865 231.211 214.685 207.392 190.328 197.378 C 159.864 180.295 124.982 170.982 89.976 170.775 C 94.317 187.856 101.405 204.236 110.832 219.166 C 102.469 230.273 97.51 244.044 97.51 258.941 C 97.51 295.673 127.646 325.557 164.688 325.557 C 201.729 325.557 231.865 295.673 231.865 258.941 Z M 164.688 311.484 C 135.471 311.484 111.703 287.913 111.703 258.941 C 111.703 229.97 135.472 206.398 164.688 206.398 C 193.904 206.398 217.673 229.969 217.673 258.941 C 217.673 287.914 193.905 311.484 164.688 311.484 Z M 198.07 251.67 C 198.07 265.662 186.633 277.003 172.523 277.003 C 158.415 277.003 146.977 265.662 146.977 251.67 C 146.977 237.678 158.415 226.337 172.523 226.337 C 186.633 226.336 198.07 237.678 198.07 251.67 Z M 273.308 328.382 C 262.492 330.873 252.662 337.052 245.527 345.471 C 244.097 347.157 241.949 348.075 239.728 348.075 L 239.653 348.075 C 237.431 348.075 235.283 347.157 233.854 345.471 C 226.719 337.052 216.889 330.873 206.072 328.382 C 209.451 319.733 216.166 312.546 224.372 308.131 C 229.039 305.619 234.323 304.447 239.633 304.447 L 239.748 304.447 C 245.058 304.447 250.341 305.619 255.008 308.131 C 263.213 312.546 269.929 319.733 273.308 328.382 Z" style="stroke-linecap: square; fill: rgb(255, 255, 255);"/>
  <path id="color_x5F_1_1_" d="M 240.663 192.957 C 235.921 192.919 232.987 191.508 230.91 190.517 C 197.619 174.669 97.43 123.063 97.43 123.063 L 97.456 123.011 C 94.716 121.634 92.964 119.552 92.964 117.215 C 92.964 113.349 97.766 110.167 103.934 109.763 L 103.954 109.719 L 240.663 109.719 L 377.372 109.719 L 377.392 109.763 C 383.559 110.167 388.361 113.349 388.361 117.215 C 388.361 119.552 386.61 121.633 383.87 123.011 L 383.895 123.063 C 383.895 123.063 290.001 169.796 250.263 190.517 C 248.454 191.458 245.032 192.993 240.663 192.957 Z" style="stroke-linecap: square; fill: rgb(255, 255, 255);"/>
  <rect x="90.481" y="110.214" width="15.465" height="60.214" style="paint-order: fill; stroke-linecap: square; fill: rgb(255, 255, 255); stroke: rgb(255, 255, 255);"/>
  <rect x="372.8" y="110.191" width="16.104" height="60.141" style="stroke-linecap: square; fill: rgb(255, 255, 255); stroke: rgb(255, 255, 255);"/>
  <path style="stroke-linecap: square; fill: rgb(255, 255, 255); stroke: rgb(255, 255, 255);" d="M 96.053 170.98 C 97.126 170.98 98.209 170.935 99.281 170.98 C 99.408 170.986 99.525 171.062 99.647 171.062 C 99.714 170.977 100.148 171.04 100.266 171.04 C 100.877 171.04 101.494 171.031 102.107 171.031 C 102.17 171.031 102.805 171.081 102.805 170.999"/>
  <path style="stroke-linecap: square; fill: rgb(255, 255, 255); stroke: rgb(255, 255, 255);" d="M 106.162 171.32 C 105.292 171.32 104.436 171.214 103.573 171.116 C 103.167 171.071 102.687 170.968 102.311 170.968 C 102.856 170.968 103.402 170.961 103.942 171.017 C 103.969 171.02 104.378 171.052 104.381 171.028"/>
  <path style="stroke-linecap: square; fill: rgb(255, 255, 255); stroke: rgb(255, 255, 255);" d="M 103.334 171.283 C 104.371 171.283 105.416 171.242 106.447 171.242"/>
  <rect x="376.3" y="181.037" width="13.861" height="3.305" style="stroke-linecap: square; fill: rgb(255, 255, 255); stroke: rgb(255, 255, 255);" transform="matrix(1, 0.000016, 0, 1, -3.499352, -11.876161)"/>
</svg>