<svg width="80" height="80" viewBox="0 0 80 80" xmlns="http://www.w3.org/2000/svg">
  <rect x="4" y="4" width="72" height="72" rx="20" fill="#F97316" />
  <path d="M40 20C51.0457 20 60 28.9543 60 40C60 51.0457 51.0457 60 40 60C28.9543 60 20 51.0457 20 40C20 28.9543 28.9543 20 40 20ZM40 26.4C32.8167 26.4 27 32.2167 27 39.4C27 46.5833 32.8167 52.4 40 52.4C47.1833 52.4 53 46.5833 53 39.4C53 32.2167 47.1833 26.4 40 26.4ZM44.8 45.2L49.6 50L45.9 53.7L41.1 48.9C40.7333 48.95 40.3667 48.9833 40 49C34.4772 49 30 44.5228 30 39C30 33.4772 34.4772 29 40 29C45.5228 29 50 33.4772 50 39C50 42.3333 48.3833 45.2833 45.8 46.9167L44.8 45.2Z" fill="#FFF7ED" />
</svg>
